<svg width="120" height="100" viewBox="0 0 120 100" fill="none" xmlns="http://www.w3.org/2000/svg">
<g id="triangles" clip-path="url(#clip0_2_2)">
<g id="lightGroup">
<path id="light1" opacity="0.6" d="M46 48.268C47.3333 49.0378 47.3333 50.9623 46 51.7321L11.5 71.6506C10.1667 72.4204 8.5 71.4582 8.5 69.9186L8.5 30.0814C8.5 28.5418 10.1667 27.5796 11.5 28.3494L46 48.268Z" fill="#43C4ED"/>
</g>
<g id="darkGroup">
<path id="dark2" opacity="0.8" d="M46.0001 48.268C47.3334 49.0378 47.3334 50.9623 46.0001 51.7321L11.5001 71.6506C10.1667 72.4204 8.50006 71.4582 8.50006 69.9186L8.50006 30.0814C8.50006 28.5418 10.1667 27.5796 11.5001 28.3494L46.0001 48.268Z" fill="#635BFF"/>
<path id="dark1" opacity="0.8" d="M67 48.268C68.3333 49.0378 68.3333 50.9623 67 51.7321L32.5 71.6506C31.1667 72.4204 29.5 71.4582 29.5 69.9186L29.5 30.0814C29.5 28.5418 31.1667 27.5796 32.5 28.3494L67 48.268Z" fill="#635BFF"/>
</g>
</g>
<defs>
<clipPath id="clip0_2_2">
<rect width="120" height="100" fill="white"/>
</clipPath>
</defs>
</svg>
